<svg width="101" height="29" viewBox="0 0 101 29" fill="none" xmlns="http://www.w3.org/2000/svg">
<path d="M15.9616 5.63636H11.7109L5.92614 17.7919H5.75568L4.00852 5.63636H0.0454546L3.1456 22H7.40696L15.9616 5.63636ZM14.8803 28.1364H18.7369L20.1857 19.4219H20.3668C20.7717 20.6151 21.7518 22.2876 24.5643 22.2876C28.4208 22.2876 31.8299 19.2301 32.7141 13.8395C33.6197 8.38494 31.1481 5.4233 27.3661 5.4233C24.479 5.4233 22.9769 7.1598 22.2099 8.34233H21.9755L22.4229 5.63636H18.6303L14.8803 28.1364ZM21.0487 13.8182C21.56 10.6435 23.2752 8.58736 25.7681 8.58736C28.3356 8.58736 29.2731 10.7713 28.783 13.8182C28.261 16.8864 26.5671 19.1236 24.0316 19.1236C21.5707 19.1236 20.5373 16.9929 21.0487 13.8182ZM40.1076 12.4119C40.5231 10.0469 42.1744 8.68324 44.1985 8.68324C46.212 8.68324 47.1708 10.0043 46.8086 12.1776L45.1786 22H49.0352L50.7823 11.581C51.4322 7.64986 49.5465 5.4233 46.2013 5.4233C43.7511 5.4233 41.8441 6.58452 40.8214 8.4169H40.619L41.0877 5.63636H37.391L34.6637 22H38.5309L40.1076 12.4119ZM53.1048 22H56.8974L57.3235 19.4219H57.5685C57.9734 20.6151 58.9535 22.2876 61.766 22.2876C65.6225 22.2876 69.0316 19.2301 69.9158 13.8395C70.8214 8.38494 68.3498 5.4233 64.5678 5.4233C61.6808 5.4233 60.1786 7.1598 59.4116 8.34233H59.2411L60.5835 0.181818H56.7269L53.1048 22ZM58.2504 13.8182C58.7617 10.6435 60.4769 8.58736 62.9698 8.58736C65.5373 8.58736 66.4748 10.7713 65.9847 13.8182C65.4734 16.8864 63.7688 19.1236 61.2333 19.1236C58.7724 19.1236 57.739 16.9929 58.2504 13.8182ZM79.0325 22.3196C83.7626 22.3196 87.3208 18.9957 88.1518 13.9886C88.9828 8.85369 86.4686 5.4233 81.6319 5.4233C76.8912 5.4233 73.3329 8.75781 72.5126 13.7862C71.6816 18.8892 74.1852 22.3196 79.0325 22.3196ZM79.3414 19.2301C76.7527 19.2301 75.9004 16.9183 76.3798 13.9673C76.8699 10.9205 78.6383 8.48082 81.323 8.48082C83.9011 8.48082 84.764 10.8246 84.2846 13.7649C83.7946 16.8224 82.0261 19.2301 79.3414 19.2301ZM100.981 5.63636H97.7425L98.3924 1.71591H94.5359L93.886 5.63636H91.5742L91.0842 8.61932H93.396L91.8938 17.7173C91.3612 20.7855 93.3214 22.2983 96.2511 22.2237C97.3377 22.1918 98.1367 21.9787 98.6055 21.8402L98.435 18.8253C98.2006 18.8679 97.7532 18.9744 97.2844 18.9744C96.315 18.9744 95.5906 18.6335 95.8356 17.0781L97.2418 8.61932H100.48L100.981 5.63636Z" fill="white"/>
</svg>
