<svg width="95" height="29" viewBox="0 0 95 29" fill="none" xmlns="http://www.w3.org/2000/svg">
<path d="M16.598 5.63636H12.4964L8.72514 17.7919H8.55469L4.79403 5.63636H0.681818L6.50923 22H10.7706L16.598 5.63636ZM17.7667 28.1364H21.6232V19.4219H21.783C22.3903 20.6151 23.658 22.2876 26.4705 22.2876C30.3271 22.2876 33.2141 19.2301 33.2141 13.8395C33.2141 8.38494 30.2418 5.4233 26.4599 5.4233C23.5728 5.4233 22.369 7.1598 21.783 8.34233H21.5593V5.63636H17.7667V28.1364ZM21.5487 13.8182C21.5487 10.6435 22.9123 8.58736 25.3945 8.58736C27.962 8.58736 29.283 10.7713 29.283 13.8182C29.283 16.8864 27.9407 19.1236 25.3945 19.1236C22.9336 19.1236 21.5487 16.9929 21.5487 13.8182ZM38.8732 12.4119C38.8732 10.0469 40.3008 8.68324 42.3356 8.68324C44.3278 8.68324 45.521 9.99361 45.521 12.1776V22H49.3775V11.581C49.3881 7.66051 47.1509 5.4233 43.7738 5.4233C41.3235 5.4233 39.6403 6.59517 38.8945 8.4169H38.7028V5.63636H35.0167V22H38.8732V12.4119ZM51.9684 22H55.761V19.4219H55.9847C56.592 20.6151 57.8597 22.2876 60.6722 22.2876C64.5288 22.2876 67.4158 19.2301 67.4158 13.8395C67.4158 8.38494 64.4435 5.4233 60.6616 5.4233C57.7745 5.4233 56.5707 7.1598 55.9847 8.34233H55.8249V0.181818H51.9684V22ZM55.7504 13.8182C55.7504 10.6435 57.114 8.58736 59.5962 8.58736C62.1637 8.58736 63.4847 10.7713 63.4847 13.8182C63.4847 16.8864 62.1424 19.1236 59.5962 19.1236C57.1353 19.1236 55.7504 16.9929 55.7504 13.8182ZM76.3322 22.3196C81.1262 22.3196 84.1731 18.9425 84.1731 13.8821C84.1731 8.81108 81.1262 5.4233 76.3322 5.4233C71.5382 5.4233 68.4913 8.81108 68.4913 13.8821C68.4913 18.9425 71.5382 22.3196 76.3322 22.3196ZM76.3535 19.2301C73.7008 19.2301 72.4011 16.8651 72.4011 13.8714C72.4011 10.8778 73.7008 8.48082 76.3535 8.48082C78.9636 8.48082 80.2633 10.8778 80.2633 13.8714C80.2633 16.8651 78.9636 19.2301 76.3535 19.2301ZM94.1175 5.63636H90.8896V1.71591H87.033V5.63636H84.7106V8.61932H87.033V17.7173C87.0117 20.7962 89.2489 22.3089 92.1467 22.2237C93.244 22.1918 94.0004 21.9787 94.4158 21.8402L93.766 18.8253C93.5529 18.8786 93.1161 18.9744 92.6367 18.9744C91.6673 18.9744 90.8896 18.6335 90.8896 17.0781V8.61932H94.1175V5.63636Z" fill="white"/>
</svg>
