<svg width="82" height="23" viewBox="0 0 82 23" fill="none" xmlns="http://www.w3.org/2000/svg">
<path d="M13.3693 4.90909H9.96875L5.34091 14.6335H5.20455L3.80682 4.90909H0.636364L3.11648 18H6.52557L13.3693 4.90909ZM12.5043 22.9091H15.5895L16.7486 15.9375H16.8935C17.2173 16.892 18.0014 18.2301 20.2514 18.2301C23.3366 18.2301 26.0639 15.7841 26.7713 11.4716C27.4957 7.10795 25.5185 4.73864 22.4929 4.73864C20.1832 4.73864 18.9815 6.12784 18.3679 7.07386H18.1804L18.5384 4.90909H15.5043L12.5043 22.9091ZM17.4389 11.4545C17.848 8.91477 19.2202 7.26989 21.2145 7.26989C23.2685 7.26989 24.0185 9.01705 23.6264 11.4545C23.2088 13.9091 21.8537 15.6989 19.8253 15.6989C17.8565 15.6989 17.0298 13.9943 17.4389 11.4545ZM32.6861 10.3295C33.0185 8.4375 34.3395 7.34659 35.9588 7.34659C37.5696 7.34659 38.3366 8.40341 38.0469 10.142L36.7429 18H39.8281L41.2259 9.66477C41.7457 6.51989 40.2372 4.73864 37.5611 4.73864C35.6009 4.73864 34.0753 5.66761 33.2571 7.13352H33.0952L33.4702 4.90909H30.5128L28.331 18H31.4247L32.6861 10.3295ZM43.0838 18H46.1179L46.4588 15.9375H46.6548C46.9787 16.892 47.7628 18.2301 50.0128 18.2301C53.098 18.2301 55.8253 15.7841 56.5327 11.4716C57.2571 7.10795 55.2798 4.73864 52.2543 4.73864C49.9446 4.73864 48.7429 6.12784 48.1293 7.07386H47.9929L49.0668 0.545454H45.9815L43.0838 18ZM47.2003 11.4545C47.6094 8.91477 48.9815 7.26989 50.9759 7.26989C53.0298 7.26989 53.7798 9.01705 53.3878 11.4545C52.9787 13.9091 51.6151 15.6989 49.5866 15.6989C47.6179 15.6989 46.7912 13.9943 47.2003 11.4545ZM63.826 18.2557C67.6101 18.2557 70.4567 15.5966 71.1214 11.5909C71.7862 7.48295 69.7749 4.73864 65.9055 4.73864C62.1129 4.73864 59.2663 7.40625 58.6101 11.429C57.9453 15.5114 59.9482 18.2557 63.826 18.2557ZM64.0732 15.7841C62.0021 15.7841 61.3203 13.9347 61.7038 11.5739C62.0959 9.13636 63.5107 7.18466 65.6584 7.18466C67.7209 7.18466 68.4112 9.05966 68.0277 11.4119C67.6357 13.858 66.2209 15.7841 64.0732 15.7841ZM81.3849 4.90909H78.794L79.3139 1.77273H76.2287L75.7088 4.90909H73.8594L73.4673 7.29545H75.3168L74.1151 14.5739C73.6889 17.0284 75.2571 18.2386 77.6009 18.179C78.4702 18.1534 79.1094 17.983 79.4844 17.8722L79.348 15.4602C79.1605 15.4943 78.8026 15.5795 78.4276 15.5795C77.652 15.5795 77.0724 15.3068 77.2685 14.0625L78.3935 7.29545H80.9844L81.3849 4.90909Z" fill="white"/>
</svg>
